<svg id="avatar" xmlns="http://www.w3.org/2000/svg" width="20.928" height="24.604"
    viewBox="0 0 20.928 24.604">
    <g id="Group_202" data-name="Group 202">
        <path id="Path_167" data-name="Path 167"
            d="M142.31,13.257h.163a4.7,4.7,0,0,0,3.592-1.554c1.962-2.211,1.636-6,1.6-6.364A5.2,5.2,0,0,0,145.194.718,5.665,5.665,0,0,0,142.453,0h-.087a5.674,5.674,0,0,0-2.741.7,5.2,5.2,0,0,0-2.5,4.642c-.036.362-.362,4.152,1.6,6.364A4.683,4.683,0,0,0,142.31,13.257Zm-3.826-7.79c0-.015.005-.031.005-.041.168-3.653,2.762-4.046,3.872-4.046h.061c1.376.031,3.714.591,3.872,4.046a.1.1,0,0,0,.005.041c.005.036.362,3.5-1.258,5.324a3.339,3.339,0,0,1-2.624,1.09h-.051a3.329,3.329,0,0,1-2.619-1.09C138.132,8.978,138.479,5.5,138.484,5.467Z"
            transform="translate(-131.935)" fill="#fff" />
        <path id="Path_168" data-name="Path 168"
            d="M57,265.58v-.015c0-.041-.005-.082-.005-.127-.031-1.009-.1-3.368-2.308-4.122l-.051-.015a14.7,14.7,0,0,1-4.229-1.926.688.688,0,0,0-.79,1.126,15.868,15.868,0,0,0,4.652,2.125c1.187.423,1.32,1.692,1.355,2.853a1.024,1.024,0,0,0,.005.127,9.248,9.248,0,0,1-.107,1.574,18.751,18.751,0,0,1-8.983,2.089,18.859,18.859,0,0,1-8.988-2.094,8.756,8.756,0,0,1-.107-1.574c0-.041.005-.082.005-.127.036-1.162.168-2.43,1.355-2.853a16.017,16.017,0,0,0,4.652-2.125.688.688,0,0,0-.79-1.126,14.54,14.54,0,0,1-4.229,1.926c-.02.005-.036.01-.051.015-2.211.759-2.278,3.118-2.308,4.122a1.023,1.023,0,0,1-.005.127v.015a7.813,7.813,0,0,0,.26,2.308.654.654,0,0,0,.265.321,19.272,19.272,0,0,0,9.946,2.435A19.33,19.33,0,0,0,56.49,268.2a.682.682,0,0,0,.265-.321A8.2,8.2,0,0,0,57,265.58Z"
            transform="translate(-36.073 -246.035)" fill="#fff" />
    </g>
</svg>
