<svg xmlns="http://www.w3.org/2000/svg" width="23.918" height="22.5" viewBox="0 0 23.918 22.5">
    <g id="buy-cart" transform="translate(0.25 -1.336)">
        <g id="Group_189" data-name="Group 189" transform="translate(0 1.586)">
            <path id="Path_138" data-name="Path 138"
                d="M20.121,43.26a1.954,1.954,0,1,0,1.954,1.954A1.956,1.956,0,0,0,20.121,43.26Zm0,3.039a1.085,1.085,0,1,1,1.085-1.085A1.087,1.087,0,0,1,20.121,46.3Z"
                transform="translate(-10.28 -25.167)" fill="#fff" stroke="#fff"
                stroke-width="0.5" />
            <path id="Path_139" data-name="Path 139"
                d="M40.222,43.26a1.954,1.954,0,1,0,1.954,1.954A1.957,1.957,0,0,0,40.222,43.26Zm0,3.039a1.085,1.085,0,1,1,1.085-1.085A1.087,1.087,0,0,1,40.222,46.3Z"
                transform="translate(-21.654 -25.167)" fill="#fff" stroke="#fff"
                stroke-width="0.5" />
            <path id="Path_140" data-name="Path 140"
                d="M21.044,7.484,21,7.476l-2.372.014a2.728,2.728,0,0,0-.519,0L14.6,7.507l-3.469-.015a2.794,2.794,0,0,0-.52,0L8.2,7.476l-.043.009A2.889,2.889,0,0,0,6.161,8.973L4.475,1.815c-.046-.2-.221-.229-.423-.229H.434a.434.434,0,1,0,0,.868H3.707L6.838,15.832s0-.049,0-.047a2.847,2.847,0,0,0,2.32,2.239c.052.014.1.015.158.025l.043,0,.277,0,0-.436.058.434,4.9-.025,4.909.025,0-.435.053.434.277,0,.044-.009c.053-.01.105-.025.152-.039a2.878,2.878,0,0,0,2.331-2.286l.956-4.824A2.9,2.9,0,0,0,21.044,7.484Zm1.426,3.235-.956,4.824a2.015,2.015,0,0,1-1.632,1.6l-.069.016-.063.016L14.6,17.151l-5.148.026-.063-.016-.068-.016a2.015,2.015,0,0,1-1.632-1.6l-.956-4.824A2.03,2.03,0,0,1,8.285,8.345l2.367.009a2.154,2.154,0,0,1,.435,0l3.517.017,3.555-.02a2.12,2.12,0,0,1,.434,0l2.324-.011A2.031,2.031,0,0,1,22.47,10.719Z"
                transform="translate(0 -1.586)" fill="#fff" stroke="#fff" stroke-width="0.5" />
        </g>
    </g>
</svg>
