<svg xmlns="http://www.w3.org/2000/svg" width="21.583" height="22.5" viewBox="0 0 21.583 22.5">
    <g id="smartphone_1_" data-name="smartphone (1)" transform="translate(0.25 0.25)">
        <path id="Path_216" data-name="Path 216"
            d="M12.375,22H2.292A2.294,2.294,0,0,1,0,19.708V2.292A2.294,2.294,0,0,1,2.292,0H12.375a2.294,2.294,0,0,1,2.292,2.292.458.458,0,0,1-.917,0A1.377,1.377,0,0,0,12.375.917H2.292A1.377,1.377,0,0,0,.917,2.292V19.708a1.377,1.377,0,0,0,1.375,1.375H12.375a1.377,1.377,0,0,0,1.375-1.375V17.875a.458.458,0,0,1,.917,0v1.833A2.294,2.294,0,0,1,12.375,22Z"
            fill="#fff" stroke="#fff" stroke-width="0.5" />
        <path id="Path_217" data-name="Path 217"
            d="M9.375,2.75H5.708A1.377,1.377,0,0,1,4.333,1.375.459.459,0,0,0,3.875.917H2.958a.458.458,0,0,1,0-.917h.917A1.377,1.377,0,0,1,5.25,1.375a.459.459,0,0,0,.458.458H9.375a.459.459,0,0,0,.458-.458A1.377,1.377,0,0,1,11.208,0h.917a.458.458,0,0,1,0,.917h-.917a.459.459,0,0,0-.458.458A1.377,1.377,0,0,1,9.375,2.75Z"
            transform="translate(-0.208)" fill="#fff" stroke="#fff" stroke-width="0.5" />
        <path id="Path_218" data-name="Path 218"
            d="M7.833,18.667a1.833,1.833,0,1,1,1.833-1.833A1.835,1.835,0,0,1,7.833,18.667Zm0-2.75a.917.917,0,1,0,.917.917A.918.918,0,0,0,7.833,15.917Z"
            transform="translate(-0.5 -1.25)" fill="#fff" stroke="#fff" stroke-width="0.5" />
        <path id="Path_219" data-name="Path 219"
            d="M10.875,23.667a.459.459,0,0,1-.458-.458v-.917a1.377,1.377,0,0,0-1.375-1.375H6.292a1.377,1.377,0,0,0-1.375,1.375v.917a.458.458,0,0,1-.917,0v-.917A2.294,2.294,0,0,1,6.292,20h2.75a2.294,2.294,0,0,1,2.292,2.292v.917A.459.459,0,0,1,10.875,23.667Z"
            transform="translate(-0.333 -1.667)" fill="#fff" stroke="#fff" stroke-width="0.5" />
        <path id="Path_220" data-name="Path 220"
            d="M16.75,13.5a2.75,2.75,0,1,1,2.75-2.75A2.753,2.753,0,0,1,16.75,13.5Zm0-4.583a1.833,1.833,0,1,0,1.833,1.833A1.835,1.835,0,0,0,16.75,8.917Z"
            transform="translate(-1.167 -0.667)" fill="#fff" stroke="#fff" stroke-width="0.5" />
        <path id="Path_221" data-name="Path 221"
            d="M16.5,16A5.5,5.5,0,1,1,22,10.5v.917a1.833,1.833,0,1,1-3.667,0V8.208a.458.458,0,1,1,.917,0v3.208a.917.917,0,1,0,1.833,0V10.5A4.583,4.583,0,1,0,16.5,15.083a.458.458,0,1,1,0,.917Z"
            transform="translate(-0.917 -0.417)" fill="#fff" stroke="#fff" stroke-width="0.5" />
    </g>
</svg>
