<svg xmlns="http://www.w3.org/2000/svg" width="37.294" height="27.288" viewBox="0 0 37.294 27.288">
    <g id="delivery-truck_1_" data-name="delivery-truck (1)" transform="translate(0.05 -68.817)">
        <g id="Group_90" data-name="Group 90" transform="translate(0 68.867)">
            <g id="Group_89" data-name="Group 89" transform="translate(0 0)">
                <path id="Path_82" data-name="Path 82"
                    d="M30.111,77.559H27.769l.706-8.1c0-.015,0-.029,0-.044s0,0,0,0h0a.545.545,0,0,0-.328-.5l0,0-.037-.014-.014,0-.031-.008-.022-.005-.028,0-.027,0h-11.2a.545.545,0,0,0,0,1.09H27.338L26.253,82.406v0L25.98,85.55H7.048l.317-3.269h3.6a.545.545,0,0,0,0-1.09H7.47l.669-6.9h5.737a.545.545,0,1,0,0-1.09H8.244l.314-3.244H14.6a.545.545,0,1,0,0-1.09H8.063a.545.545,0,0,0-.532.43V69.3c0,.014,0,.027-.006.041s0,.009,0,.013v0L7.15,73.2H.545a.545.545,0,1,0,0,1.09h6.5l-.669,6.9H4.431a.545.545,0,0,0,0,1.09H6.27l-.364,3.757v0l-.563,5.81v0c0,.008,0,.015,0,.023s0,.02,0,.03h0c0,.014,0,.028,0,.042s0,.009,0,.013,0,.028.006.042,0,.008,0,.012.005.021.008.031,0,.015.006.022l0,.006a.545.545,0,0,0,.13.213l0,0,.018.017a.54.54,0,0,0,.126.087l.029.014.009,0,.042.015h0l.049.012h.007l.048.007h0l.053,0H8.311a4.147,4.147,0,0,0,8.223,0h8.739a4.147,4.147,0,0,0,8.223,0h2.427l.054,0h.009l.042-.006.018,0,.032-.008.021-.007.027-.01.022-.01.024-.011.022-.012.022-.014.02-.013.022-.016.018-.014.022-.02.015-.014.022-.024.012-.013.023-.03.008-.011c.009-.013.017-.027.025-.041l0,0c.008-.015.016-.031.023-.047l.005-.014c0-.011.009-.023.012-.034s0-.015.006-.023,0-.018.007-.027,0-.017,0-.025,0-.015,0-.022c.023-.185.45-3.608.64-5.821v-.006c.055-.638.09-1.175.09-1.5A7.091,7.091,0,0,0,30.111,77.559Zm-2.437,1.09H29.9l-.285,3.269H27.39ZM12.423,94.965a3.059,3.059,0,1,1,3.059-3.059A3.062,3.062,0,0,1,12.423,94.965Zm16.962,0a3.059,3.059,0,1,1,3.059-3.059A3.062,3.062,0,0,1,29.384,94.965Zm6.056-3.6H33.5a4.147,4.147,0,0,0-8.223,0H16.534a4.147,4.147,0,0,0-8.223,0H6.485l.458-4.722H26.48l.054,0h.01l.042-.006.018,0,.032-.008.021-.007.027-.01.022-.01.024-.011.022-.012.022-.013.02-.014.021-.016.019-.015.02-.018.016-.016.019-.021.014-.017.017-.023.012-.018.015-.025.011-.019.013-.026.009-.021c0-.009.007-.017.01-.026L27,86.25l.007-.026c0-.009,0-.017.006-.026s0-.017,0-.026,0-.018,0-.027v0l.273-3.135h2.816a3.9,3.9,0,0,1,3.219,1.781,4.47,4.47,0,0,0,2.64,1.8C35.811,88.268,35.555,90.42,35.44,91.362Zm.622-5.861a3.565,3.565,0,0,1-1.911-1.428,5.117,5.117,0,0,0-3.442-2.122l.282-3.236A6,6,0,0,1,36.1,84.642C36.1,84.847,36.089,85.143,36.063,85.5Z"
                    transform="translate(0 -68.867)" fill="#d12f7e" stroke="#d12f7e"
                    stroke-width="0.1" />
            </g>
        </g>
        <g id="Group_92" data-name="Group 92" transform="translate(10.425 89.909)">
            <g id="Group_91" data-name="Group 91" transform="translate(0 0)">
                <path id="Path_83" data-name="Path 83"
                    d="M145.506,358.524a2,2,0,1,0,2,2A2,2,0,0,0,145.506,358.524Zm0,2.906a.908.908,0,1,1,.908-.908A.909.909,0,0,1,145.506,361.43Z"
                    transform="translate(-143.508 -358.524)" fill="#d12f7e" stroke="#d12f7e"
                    stroke-width="0.1" />
            </g>
        </g>
        <g id="Group_94" data-name="Group 94" transform="translate(27.387 89.909)">
            <g id="Group_93" data-name="Group 93" transform="translate(0 0)">
                <path id="Path_84" data-name="Path 84"
                    d="M378.994,358.524a2,2,0,1,0,2,2A2,2,0,0,0,378.994,358.524Zm0,2.906a.908.908,0,1,1,.908-.908A.909.909,0,0,1,378.994,361.43Z"
                    transform="translate(-376.996 -358.524)" fill="#d12f7e" stroke="#d12f7e"
                    stroke-width="0.1" />
            </g>
        </g>
        <g id="Group_96" data-name="Group 96" transform="translate(1.949 77.56)">
            <g id="Group_95" data-name="Group 95" transform="translate(0 0)">
                <path id="Path_85" data-name="Path 85"
                    d="M30.042,188.527H27.379a.545.545,0,1,0,0,1.09h2.664a.545.545,0,1,0,0-1.09Z"
                    transform="translate(-26.834 -188.527)" fill="#d12f7e" stroke="#d12f7e"
                    stroke-width="0.1" />
            </g>
        </g>
    </g>
</svg>
