<svg xmlns="http://www.w3.org/2000/svg" width="20.933" height="23.366" viewBox="0 0 20.933 23.366">
    <path id="iconfinder_00-ELASTOFONT-STORE-READY_bag_2703085"
        d="M22.144,6.974a.731.731,0,0,0-.729-.685H17.55V5.147C17.55,2.861,15.381,1,12.716,1S7.882,2.861,7.882,5.147V6.289H4.017a.731.731,0,0,0-.729.685L2.251,23.59a.73.73,0,0,0,.729.776H22.452a.73.73,0,0,0,.729-.776ZM9.343,5.147c0-1.481,1.514-2.687,3.373-2.687s3.373,1.206,3.373,2.687V6.289H9.343Zm-1.46,2.6V9.335a.73.73,0,0,0,1.46,0V7.749h6.747V9.335a.73.73,0,1,0,1.46,0V7.749h3.178l.633,10.126H4.071L4.7,7.749ZM3.757,22.906l.253-4.057H21.422l.253,4.057Z"
        transform="translate(-2.25 -1)" fill="#fff" />
</svg>
