<svg xmlns="http://www.w3.org/2000/svg" width="26.662" height="27.001" viewBox="0 0 26.662 27.001">
    <g id="free-delivery" transform="translate(-3.212)">
        <g id="Group_98" data-name="Group 98" transform="translate(3.212 0.472)">
            <g id="Group_97" data-name="Group 97" transform="translate(0)">
                <path id="Path_86" data-name="Path 86"
                    d="M29.781,27.663a.424.424,0,0,0-.5-.333l-2.692.54-1.181-5.888a.425.425,0,0,0-.833.167l1.181,5.888L10.6,31.074,8.457,20.362l2.692-.54a.428.428,0,0,0,.217-.717l-.955-.954.513-1.248a.428.428,0,0,0-.476-.578l-2.692.54-.189-.944,15.152-3.038.189.944-2.692.54a.428.428,0,0,0-.217.717l.955.954-.513,1.248a.428.428,0,0,0,.476.578l2.692-.54.592,2.952a.425.425,0,0,0,.833-.167L23.469,12.3a.429.429,0,0,0-.5-.333L7.4,15.089l-1.163-5.8a.424.424,0,0,0-.5-.333l-2.185.438a.425.425,0,1,0,.167.833l1.768-.355L9.855,31.657a.429.429,0,0,0,.5.333l8.372-1.678a2.69,2.69,0,0,0-1.588,3.005h0A2.689,2.689,0,1,0,19.786,30.1l9.662-1.937A.425.425,0,0,0,29.781,27.663Zm-6.706-13,.367,1.832-1.914.384.319-.776a.425.425,0,0,0-.093-.462l-.594-.593ZM7.923,17.7l1.914-.384-.319.776a.425.425,0,0,0,.093.462l.594.593-1.914.384ZM21.579,32.427a1.84,1.84,0,0,1-3.608.723h0a1.827,1.827,0,0,1,.273-1.381,1.84,1.84,0,0,1,3.335.658Z"
                    transform="translate(-3.212 -8.948)" fill="#d12f7e" />
            </g>
        </g>
        <g id="Group_100" data-name="Group 100" transform="translate(18.445 22.982)">
            <g id="Group_99" data-name="Group 99" transform="translate(0)">
                <path id="Path_87" data-name="Path 87"
                    d="M294.707,436.857a1.33,1.33,0,0,0-2.609.523h0a1.33,1.33,0,1,0,2.609-.523Zm-.9.528a.486.486,0,0,1-.667.134.481.481,0,0,1,.172-.872.486.486,0,0,1,.566.377A.478.478,0,0,1,293.8,437.385Z"
                    transform="translate(-292.072 -435.788)" fill="#d12f7e" />
            </g>
        </g>
        <g id="Group_102" data-name="Group 102" transform="translate(9.754 12.548)">
            <g id="Group_101" data-name="Group 101">
                <path id="Path_88" data-name="Path 88"
                    d="M130.331,238.271a.424.424,0,0,0-.5-.333l-2.22.445a.425.425,0,0,0-.333.5l.712,3.552a.425.425,0,1,0,.832-.167l-.273-1.36.916-.184a.425.425,0,1,0-.167-.833l-.916.184-.189-.944,1.8-.362A.424.424,0,0,0,130.331,238.271Z"
                    transform="translate(-127.27 -237.93)" fill="#d12f7e" />
            </g>
        </g>
        <g id="Group_104" data-name="Group 104" transform="translate(13.307 11.835)">
            <g id="Group_103" data-name="Group 103">
                <path id="Path_89" data-name="Path 89"
                    d="M198.272,228.087l-1.055-.943.5-.1a.425.425,0,0,0,.333-.5l-.356-1.776a.424.424,0,0,0-.5-.333l-2.22.445a.429.429,0,0,0-.333.5l.712,3.552a.425.425,0,1,0,.832-.167l-.629-3.136,1.388-.278.189.944-.916.184a.428.428,0,0,0-.2.733l1.688,1.509a.425.425,0,0,0,.566-.633Z"
                    transform="translate(-194.633 -224.427)" fill="#d12f7e" />
            </g>
        </g>
        <g id="Group_106" data-name="Group 106" transform="translate(17.303 11.123)">
            <g id="Group_105" data-name="Group 105" transform="translate(0)">
                <path id="Path_90" data-name="Path 90"
                    d="M273.742,214.814a.424.424,0,0,0-.5-.333l-1.36.273-.189-.944.916-.184a.425.425,0,1,0-.167-.833l-.916.184-.189-.944,1.36-.273a.425.425,0,1,0-.167-.833l-1.776.356a.429.429,0,0,0-.333.5l.712,3.552a.429.429,0,0,0,.5.333l1.776-.356A.424.424,0,0,0,273.742,214.814Z"
                    transform="translate(-270.413 -210.921)" fill="#d12f7e" />
            </g>
        </g>
        <g id="Group_108" data-name="Group 108" transform="translate(20.411 10.5)">
            <g id="Group_107" data-name="Group 107">
                <path id="Path_91" data-name="Path 91"
                    d="M332.674,203a.425.425,0,0,0-.5-.333l-1.36.272-.189-.944.916-.184a.425.425,0,0,0-.167-.833l-.916.184-.189-.944,1.36-.273a.425.425,0,0,0-.167-.833l-1.776.356a.425.425,0,0,0-.333.5l.712,3.552a.429.429,0,0,0,.5.333l1.776-.356A.424.424,0,0,0,332.674,203Z"
                    transform="translate(-329.345 -199.107)" fill="#d12f7e" />
            </g>
        </g>
        <g id="Group_110" data-name="Group 110" transform="translate(11.439 6.15)">
            <g id="Group_109" data-name="Group 109">
                <path id="Path_92" data-name="Path 92"
                    d="M167.344,117.852l-.178-.888a.429.429,0,0,0-.5-.333l-7.1,1.424a.425.425,0,0,0-.333.5l.178.888a2.238,2.238,0,0,0,2.188,1.8,2.262,2.262,0,0,0,.444-.044l3.552-.712a2.236,2.236,0,0,0,1.753-2.632Zm-1.038,1.208a1.378,1.378,0,0,1-.882.591l-3.552.712a1.387,1.387,0,0,1-1.632-1.087l-.095-.472,6.272-1.257.095.472A1.378,1.378,0,0,1,166.306,119.06Z"
                    transform="translate(-159.221 -116.623)" fill="#d12f7e" />
            </g>
        </g>
        <g id="Group_112" data-name="Group 112" transform="translate(10.911 18.765)">
            <g id="Group_111" data-name="Group 111">
                <path id="Path_93" data-name="Path 93"
                    d="M150.321,357.5l-.267-1.332a.425.425,0,1,0-.833.167l.267,1.332a.425.425,0,0,0,.833-.167Z"
                    transform="translate(-149.213 -355.826)" fill="#d12f7e" />
            </g>
        </g>
        <g id="Group_114" data-name="Group 114" transform="translate(12.687 18.409)">
            <g id="Group_113" data-name="Group 113">
                <path id="Path_94" data-name="Path 94"
                    d="M184,350.75l-.267-1.332a.425.425,0,0,0-.833.167l.267,1.332a.425.425,0,1,0,.833-.167Z"
                    transform="translate(-182.892 -349.077)" fill="#d12f7e" />
            </g>
        </g>
        <g id="Group_116" data-name="Group 116" transform="translate(14.907 17.964)">
            <g id="Group_115" data-name="Group 115">
                <path id="Path_95" data-name="Path 95"
                    d="M226.1,342.308l-.267-1.332a.425.425,0,0,0-.833.167l.267,1.332a.425.425,0,0,0,.833-.167Z"
                    transform="translate(-224.991 -340.635)" fill="#d12f7e" />
            </g>
        </g>
        <g id="Group_118" data-name="Group 118" transform="translate(17.128 17.519)">
            <g id="Group_117" data-name="Group 117">
                <path id="Path_96" data-name="Path 96"
                    d="M268.2,333.869l-.267-1.332a.425.425,0,1,0-.833.167l.267,1.332a.425.425,0,1,0,.833-.167Z"
                    transform="translate(-267.089 -332.196)" fill="#d12f7e" />
            </g>
        </g>
        <g id="Group_120" data-name="Group 120" transform="translate(18.904 17.163)">
            <g id="Group_119" data-name="Group 119">
                <path id="Path_97" data-name="Path 97"
                    d="M301.877,327.118l-.267-1.332a.425.425,0,1,0-.833.167l.267,1.332a.425.425,0,0,0,.833-.167Z"
                    transform="translate(-300.769 -325.445)" fill="#d12f7e" />
            </g>
        </g>
        <g id="Group_122" data-name="Group 122" transform="translate(20.236 16.896)">
            <g id="Group_121" data-name="Group 121">
                <path id="Path_98" data-name="Path 98"
                    d="M327.136,322.054l-.267-1.332a.425.425,0,1,0-.833.167l.267,1.332a.425.425,0,0,0,.833-.167Z"
                    transform="translate(-326.028 -320.381)" fill="#d12f7e" />
            </g>
        </g>
        <g id="Group_124" data-name="Group 124" transform="translate(21.568 16.629)">
            <g id="Group_123" data-name="Group 123">
                <path id="Path_99" data-name="Path 99"
                    d="M352.395,316.989l-.267-1.332a.425.425,0,0,0-.833.167l.267,1.332a.425.425,0,0,0,.833-.167Z"
                    transform="translate(-351.287 -315.315)" fill="#d12f7e" />
            </g>
        </g>
        <g id="Group_126" data-name="Group 126" transform="translate(23.344 16.273)">
            <g id="Group_125" data-name="Group 125">
                <path id="Path_100" data-name="Path 100"
                    d="M386.074,310.238l-.267-1.332a.425.425,0,0,0-.833.167l.267,1.332a.425.425,0,1,0,.833-.167Z"
                    transform="translate(-384.966 -308.565)" fill="#d12f7e" />
            </g>
        </g>
        <g id="Group_128" data-name="Group 128" transform="translate(10.457 0)">
            <g id="Group_127" data-name="Group 127" transform="translate(0 0)">
                <path id="Path_101" data-name="Path 101"
                    d="M143.751,1.811c-.506,0-.934-.635-.934-1.387a.425.425,0,1,0-.849,0c0,.752-.428,1.387-.934,1.387a.425.425,0,0,0,0,.849c.506,0,.934.635.934,1.387a.425.425,0,1,0,.849,0c0-.752.428-1.387.934-1.387a.425.425,0,0,0,0-.849Zm-1.359.789a2.04,2.04,0,0,0-.314-.365,2.044,2.044,0,0,0,.314-.365,2.04,2.04,0,0,0,.314.365A2.037,2.037,0,0,0,142.392,2.6Z"
                    transform="translate(-140.609 0)" fill="#d12f7e" />
            </g>
        </g>
        <g id="Group_130" data-name="Group 130" transform="translate(26.308 8.604)">
            <g id="Group_129" data-name="Group 129">
                <path id="Path_102" data-name="Path 102"
                    d="M444.306,164.969c-.506,0-.934-.635-.934-1.387a.425.425,0,1,0-.849,0c0,.752-.428,1.387-.934,1.387a.425.425,0,1,0,0,.849c.506,0,.934.635.934,1.387a.425.425,0,1,0,.849,0c0-.752.428-1.387.934-1.387a.425.425,0,1,0,0-.849Zm-1.359.789a2.041,2.041,0,0,0-.314-.365.318.318,0,1,1,.629,0A2.041,2.041,0,0,0,442.947,165.758Z"
                    transform="translate(-441.164 -163.157)" fill="#d12f7e" />
            </g>
        </g>
        <g id="Group_132" data-name="Group 132" transform="translate(3.212 17.209)">
            <g id="Group_131" data-name="Group 131" transform="translate(0)">
                <path id="Path_103" data-name="Path 103"
                    d="M6.355,328.126c-.506,0-.934-.635-.934-1.387a.425.425,0,0,0-.849,0c0,.752-.428,1.387-.934,1.387a.425.425,0,1,0,0,.849c.506,0,.934.635.934,1.387a.425.425,0,1,0,.849,0c0-.752.428-1.387.934-1.387a.425.425,0,1,0,0-.849ZM5,328.916a.369.369,0,0,1,0-.729.369.369,0,0,1,0,.729Z"
                    transform="translate(-3.213 -326.315)" fill="#d12f7e" />
            </g>
        </g>
    </g>
</svg>
