<svg xmlns="http://www.w3.org/2000/svg" width="12.14" height="15.014" viewBox="0 0 12.14 15.014">
    <g id="garbage-can" transform="translate(-49)">
        <path id="Path_196" data-name="Path 196"
            d="M58.355,1.906h-.54A2.335,2.335,0,0,0,55.539,0H54.6a2.336,2.336,0,0,0-2.275,1.906h-.54A2.789,2.789,0,0,0,49,4.692a.44.44,0,0,0,.44.44H50.2l.616,8.657a1.324,1.324,0,0,0,1.316,1.226H58a1.324,1.324,0,0,0,1.316-1.226l.616-8.657H60.7a.44.44,0,0,0,.44-.44,2.789,2.789,0,0,0-2.786-2.786ZM54.6.88h.938A1.443,1.443,0,0,1,56.91,1.906H53.23A1.443,1.443,0,0,1,54.6.88Zm3.842,12.846a.441.441,0,0,1-.439.409H52.136a.441.441,0,0,1-.439-.409l-.612-8.594h7.97ZM49.931,4.252a1.909,1.909,0,0,1,1.855-1.466h6.569a1.909,1.909,0,0,1,1.855,1.466Z"
            transform="translate(0)" fill="#fff" />
        <path id="Path_197" data-name="Path 197"
            d="M289.418,246.57a.44.44,0,0,0,.461-.417l.235-4.692a.44.44,0,0,0-.879-.044L289,246.109A.44.44,0,0,0,289.418,246.57Z"
            transform="translate(-232.962 -233.932)" fill="#fff" />
        <path id="Path_198" data-name="Path 198"
            d="M185.674,246.572a.44.44,0,0,0,.44-.462l-.235-4.692a.44.44,0,0,0-.879.044l.235,4.692A.44.44,0,0,0,185.674,246.572Z"
            transform="translate(-132.012 -233.933)" fill="#fff" />
    </g>
</svg>
