<svg xmlns="http://www.w3.org/2000/svg" width="24.976" height="22.221" viewBox="0 0 24.976 22.221">
    <path id="heart_10_" data-name="heart (10)"
        d="M12.488,22.221a1.465,1.465,0,0,1-.966-.363c-1.009-.882-1.982-1.711-2.84-2.443l0,0a52.818,52.818,0,0,1-6.2-5.82A9.3,9.3,0,0,1,0,7.506,7.806,7.806,0,0,1,1.981,2.175,6.716,6.716,0,0,1,6.977,0,6.282,6.282,0,0,1,10.9,1.355a8.029,8.029,0,0,1,1.587,1.657,8.03,8.03,0,0,1,1.587-1.657A6.282,6.282,0,0,1,18,0a6.717,6.717,0,0,1,5,2.175,7.806,7.806,0,0,1,1.981,5.332A9.3,9.3,0,0,1,22.5,13.591a52.813,52.813,0,0,1-6.2,5.82c-.86.732-1.834,1.563-2.845,2.447a1.466,1.466,0,0,1-.965.362ZM6.977,1.463a5.269,5.269,0,0,0-3.92,1.7,6.35,6.35,0,0,0-1.594,4.34A7.822,7.822,0,0,0,3.6,12.658,51.977,51.977,0,0,0,9.627,18.3l0,0c.862.734,1.838,1.567,2.855,2.455,1.023-.89,2-1.724,2.864-2.459a51.99,51.99,0,0,0,6.023-5.64,7.823,7.823,0,0,0,2.141-5.152,6.35,6.35,0,0,0-1.594-4.34A5.269,5.269,0,0,0,18,1.463,4.852,4.852,0,0,0,14.97,2.512a7.1,7.1,0,0,0-1.688,1.954.924.924,0,0,1-1.587,0,7.093,7.093,0,0,0-1.688-1.954A4.852,4.852,0,0,0,6.977,1.463Zm0,0"
        transform="translate(0 0)" fill="#d12f7e" />
</svg>
