<svg xmlns="http://www.w3.org/2000/svg" width="24.976" height="22.221" viewBox="0 0 24.976 22.221">
    <path id="heart_10_" data-name="heart (10)"
        d="M12.488,22.221a1.465,1.465,0,0,1-.966-.363c-1.009-.882-1.982-1.711-2.84-2.443l0,0a52.818,52.818,0,0,1-6.2-5.82A9.3,9.3,0,0,1,0,7.506,7.806,7.806,0,0,1,1.981,2.175,6.716,6.716,0,0,1,6.977,0,6.282,6.282,0,0,1,10.9,1.355a8.029,8.029,0,0,1,1.587,1.657,8.03,8.03,0,0,1,1.587-1.657A6.282,6.282,0,0,1,18,0a6.717,6.717,0,0,1,5,2.175,7.806,7.806,0,0,1,1.981,5.332A9.3,9.3,0,0,1,22.5,13.591a52.813,52.813,0,0,1-6.2,5.82c-.86.732-1.834,1.563-2.845,2.447a1.466,1.466,0,0,1-.965.362Z"
        transform="translate(0 0)" fill="#d12f7e" />
</svg>
