<svg xmlns="http://www.w3.org/2000/svg" width="21.133" height="21.128" viewBox="0 0 21.133 21.128">
    <path id="Path_149" data-name="Path 149"
        d="M22.706,11.93,20.464,9.688h0L12.991,2.215a.747.747,0,0,0-1.061,0L9.9,4.246,4.457,9.688h0L2.215,11.93a.75.75,0,1,0,1.061,1.061l.964-.971V22.175a.747.747,0,0,0,.747.747H19.933a.747.747,0,0,0,.747-.747V12.02l.964.971a.75.75,0,1,0,1.061-1.061Zm-3.52,9.5H5.735v-10.9L12.461,3.8l6.726,6.726Z"
        transform="translate(-1.894 -1.894)" fill="#fff" stroke="#fff" stroke-width="0.2" />
</svg>
