<svg xmlns="http://www.w3.org/2000/svg" width="21.501" height="24" viewBox="0 0 21.501 24">
    <path id="iconfinder_00-ELASTOFONT-STORE-READY_bag_2703085"
        d="M22.684,7.136a.75.75,0,0,0-.749-.7h-3.97V5.26C17.965,2.911,15.737,1,13,1S8.035,2.911,8.035,5.26V6.433H4.065a.75.75,0,0,0-.749.7L2.251,24.2A.75.75,0,0,0,3,25H23a.75.75,0,0,0,.749-.8ZM9.535,5.26C9.535,3.738,11.09,2.5,13,2.5s3.465,1.238,3.465,2.76V6.433H9.535Zm-1.5,2.673V9.562a.75.75,0,0,0,1.5,0V7.933h6.93V9.562a.75.75,0,0,0,1.5,0V7.933h3.265l.65,10.4H4.121l.65-10.4ZM3.8,23.5l.26-4.167H21.942L22.2,23.5Z"
        transform="translate(-2.25 -1)" fill="#1d1d1b" />
</svg>
