<svg xmlns="http://www.w3.org/2000/svg" width="21" height="21.101" viewBox="0 0 21 21.101">
    <path id="whatsapp_1_" data-name="whatsapp (1)"
        d="M18.19,3.066A10.458,10.458,0,0,0,1.733,15.683L.25,21.1l5.543-1.454a10.445,10.445,0,0,0,5,1.273h0a10.461,10.461,0,0,0,7.4-17.853Zm-7.4,16.087h0a8.68,8.68,0,0,1-4.423-1.211l-.317-.188-3.289.863.878-3.207-.207-.329a8.691,8.691,0,1,1,7.362,4.073Zm4.767-6.509c-.261-.131-1.546-.763-1.785-.85s-.414-.131-.588.131-.675.85-.827,1.024-.3.2-.566.065a7.136,7.136,0,0,1-2.1-1.3A7.881,7.881,0,0,1,8.24,9.909c-.152-.262,0-.389.115-.533a7.39,7.39,0,0,0,.653-.894.481.481,0,0,0-.022-.458c-.065-.131-.588-1.417-.805-1.94s-.427-.44-.588-.448-.326-.009-.5-.009a.96.96,0,0,0-.7.327,2.93,2.93,0,0,0-.914,2.18,5.082,5.082,0,0,0,1.067,2.7,11.646,11.646,0,0,0,4.463,3.945,14.954,14.954,0,0,0,1.489.55,3.582,3.582,0,0,0,1.646.1,2.692,2.692,0,0,0,1.764-1.242,2.183,2.183,0,0,0,.152-1.242c-.065-.109-.239-.174-.5-.305Zm0,0"
        transform="translate(-0.25)" fill="#fff" fill-rule="evenodd" />
</svg>
