<svg xmlns="http://www.w3.org/2000/svg" width="27.488" height="27.5" viewBox="0 0 27.488 27.5">
    <g id="location" transform="translate(0.15 0.15)">
        <g id="Group_134" data-name="Group 134">
            <g id="Group_133" data-name="Group 133">
                <path id="Path_110" data-name="Path 110"
                    d="M5.081,0A5.087,5.087,0,0,0,0,5.081C0,9.069,4.649,12.5,4.846,12.64a.4.4,0,0,0,.469,0c.2-.144,4.846-3.57,4.846-7.559A5.087,5.087,0,0,0,5.081,0Zm0,11.813C4.153,11.073.8,8.182.8,5.081a4.283,4.283,0,0,1,8.566,0C9.364,8.182,6.009,11.073,5.081,11.813Z"
                    fill="#d12f7e" stroke="#d12f7e" stroke-width="0.3" />
            </g>
        </g>
        <g id="Group_136" data-name="Group 136" transform="translate(2.128 2.128)">
            <g id="Group_135" data-name="Group 135">
                <path id="Path_111" data-name="Path 111"
                    d="M45.867,42.208a.4.4,0,1,0-.766.222,2.155,2.155,0,1,1-2.07-1.553,2.13,2.13,0,0,1,.987.239.4.4,0,1,0,.366-.709,2.949,2.949,0,1,0,1.482,1.8Z"
                    transform="translate(-40.078 -40.079)" fill="#d12f7e" stroke="#d12f7e"
                    stroke-width="0.3" />
            </g>
        </g>
        <g id="Group_138" data-name="Group 138" transform="translate(17.026 14.472)">
            <g id="Group_137" data-name="Group 137">
                <path id="Path_112" data-name="Path 112"
                    d="M325.707,272.532a5.087,5.087,0,0,0-5.081,5.081c0,3.988,4.649,7.415,4.846,7.559a.4.4,0,0,0,.469,0c.2-.144,4.846-3.57,4.846-7.559A5.087,5.087,0,0,0,325.707,272.532Zm0,11.813c-.928-.74-4.283-3.63-4.283-6.732a4.283,4.283,0,1,1,8.566,0C329.99,280.714,326.635,283.605,325.707,284.345Z"
                    transform="translate(-320.626 -272.532)" fill="#d12f7e" stroke="#d12f7e"
                    stroke-width="0.3" />
            </g>
        </g>
        <g id="Group_140" data-name="Group 140" transform="translate(19.154 16.6)">
            <g id="Group_139" data-name="Group 139">
                <path id="Path_113" data-name="Path 113"
                    d="M363.66,312.611a2.948,2.948,0,0,0-.952.157.4.4,0,0,0,.257.756,2.155,2.155,0,1,1-1.174.967.4.4,0,0,0-.692-.4,2.953,2.953,0,1,0,2.56-1.481Z"
                    transform="translate(-360.707 -312.611)" fill="#d12f7e" stroke="#d12f7e"
                    stroke-width="0.3" />
            </g>
        </g>
        <g id="Group_142" data-name="Group 142" transform="translate(7.236 11.918)">
            <g id="Group_141" data-name="Group 141">
                <path id="Path_114" data-name="Path 114"
                    d="M137.09,224.438h-.426a.4.4,0,1,0,0,.8h.426a.4.4,0,1,0,0-.8Z"
                    transform="translate(-136.265 -224.438)" fill="#d12f7e" stroke="#d12f7e"
                    stroke-width="0.3" />
            </g>
        </g>
        <g id="Group_144" data-name="Group 144" transform="translate(2.797 19.154)">
            <g id="Group_143" data-name="Group 143">
                <path id="Path_115" data-name="Path 115"
                    d="M53.939,360.7H53.9a4.036,4.036,0,0,0-.911.1.4.4,0,0,0,.18.777,3.238,3.238,0,0,1,.731-.083h.041a.4.4,0,1,0,0-.8Z"
                    transform="translate(-52.678 -360.704)" fill="#d12f7e" stroke="#d12f7e"
                    stroke-width="0.3" />
            </g>
        </g>
        <g id="Group_146" data-name="Group 146" transform="translate(0 22.264)">
            <g id="Group_145" data-name="Group 145">
                <path id="Path_116" data-name="Path 116"
                    d="M.49,419.284a.4.4,0,0,0-.451.34,4.075,4.075,0,0,0-.039.563c0,.133.007.267.02.4a.4.4,0,0,0,.4.36l.04,0a.4.4,0,0,0,.358-.436C.8,420.4.8,420.294.8,420.187a3.26,3.26,0,0,1,.031-.452A.4.4,0,0,0,.49,419.284Z"
                    transform="translate(0 -419.28)" fill="#d12f7e" stroke="#d12f7e"
                    stroke-width="0.3" />
            </g>
        </g>
        <g id="Group_148" data-name="Group 148" transform="translate(13.132 18.114)">
            <g id="Group_147" data-name="Group 147">
                <path id="Path_117" data-name="Path 117"
                    d="M248.665,341.241a.4.4,0,0,0-.564,0,3.231,3.231,0,0,1-.611.472.4.4,0,1,0,.409.685,4.031,4.031,0,0,0,.761-.589A.4.4,0,0,0,248.665,341.241Z"
                    transform="translate(-247.295 -341.122)" fill="#d12f7e" stroke="#d12f7e"
                    stroke-width="0.3" />
            </g>
        </g>
        <g id="Group_150" data-name="Group 150" transform="translate(2.653 26.26)">
            <g id="Group_149" data-name="Group 149">
                <path id="Path_118" data-name="Path 118"
                    d="M51.227,494.649a3.226,3.226,0,0,1-.763-.114.4.4,0,1,0-.212.769,4.022,4.022,0,0,0,.952.143h.012a.4.4,0,0,0,.011-.8Z"
                    transform="translate(-49.959 -494.52)" fill="#d12f7e" stroke="#d12f7e"
                    stroke-width="0.3" />
            </g>
        </g>
        <g id="Group_152" data-name="Group 152" transform="translate(5.25 26.39)">
            <g id="Group_151" data-name="Group 151">
                <path id="Path_119" data-name="Path 119"
                    d="M100.132,496.971h-.87a.4.4,0,1,0,0,.8h.87a.4.4,0,1,0,0-.8Z"
                    transform="translate(-98.863 -496.971)" fill="#d12f7e" stroke="#d12f7e"
                    stroke-width="0.3" />
            </g>
        </g>
        <g id="Group_154" data-name="Group 154" transform="translate(0.591 24.755)">
            <g id="Group_153" data-name="Group 153">
                <path id="Path_120" data-name="Path 120"
                    d="M12.368,466.953a3.241,3.241,0,0,1-.5-.59.4.4,0,1,0-.667.438,4.039,4.039,0,0,0,.621.736.4.4,0,0,0,.272.107A.4.4,0,0,0,12.368,466.953Z"
                    transform="translate(-11.138 -466.182)" fill="#d12f7e" stroke="#d12f7e"
                    stroke-width="0.3" />
            </g>
        </g>
        <g id="Group_156" data-name="Group 156" transform="translate(0.677 20.027)">
            <g id="Group_155" data-name="Group 155">
                <path id="Path_121" data-name="Path 121"
                    d="M14.032,377.278a.4.4,0,0,0-.563-.043,4.042,4.042,0,0,0-.65.71.4.4,0,1,0,.649.465,3.244,3.244,0,0,1,.522-.569A.4.4,0,0,0,14.032,377.278Z"
                    transform="translate(-12.746 -377.139)" fill="#d12f7e" stroke="#d12f7e"
                    stroke-width="0.3" />
            </g>
        </g>
        <g id="Group_158" data-name="Group 158" transform="translate(15.685 26.39)">
            <g id="Group_157" data-name="Group 157">
                <path id="Path_122" data-name="Path 122"
                    d="M296.643,496.971h-.87a.4.4,0,0,0,0,.8h.87a.4.4,0,1,0,0-.8Z"
                    transform="translate(-295.374 -496.971)" fill="#d12f7e" stroke="#d12f7e"
                    stroke-width="0.3" />
            </g>
        </g>
        <g id="Group_160" data-name="Group 160" transform="translate(10.616 19.148)">
            <g id="Group_159" data-name="Group 159">
                <path id="Path_123" data-name="Path 123"
                    d="M201.585,360.972a.4.4,0,0,0-.421-.376c-.061,0-.123.005-.183.005h-.664a.4.4,0,0,0,0,.8h.664c.076,0,.153,0,.228-.006A.4.4,0,0,0,201.585,360.972Z"
                    transform="translate(-199.918 -360.595)" fill="#d12f7e" stroke="#d12f7e"
                    stroke-width="0.3" />
            </g>
        </g>
        <g id="Group_162" data-name="Group 162" transform="translate(12.004 11.991)">
            <g id="Group_161" data-name="Group 161">
                <path id="Path_124" data-name="Path 124"
                    d="M227.457,226.118a4,4,0,0,0-.914-.3.4.4,0,0,0-.159.782,3.2,3.2,0,0,1,.732.244.4.4,0,1,0,.342-.721Z"
                    transform="translate(-226.064 -225.805)" fill="#d12f7e" stroke="#d12f7e"
                    stroke-width="0.3" />
            </g>
        </g>
        <g id="Group_164" data-name="Group 164" transform="translate(5.398 19.154)">
            <g id="Group_163" data-name="Group 163">
                <path id="Path_125" data-name="Path 125"
                    d="M102.931,360.7h-.87a.4.4,0,0,0,0,.8h.87a.4.4,0,1,0,0-.8Z"
                    transform="translate(-101.662 -360.704)" fill="#d12f7e" stroke="#d12f7e"
                    stroke-width="0.3" />
            </g>
        </g>
        <g id="Group_166" data-name="Group 166" transform="translate(14.164 13.351)">
            <g id="Group_165" data-name="Group 165">
                <path id="Path_126" data-name="Path 126"
                    d="M267.932,252.421a4.017,4.017,0,0,0-.486-.831.4.4,0,1,0-.636.482,3.217,3.217,0,0,1,.389.666.4.4,0,1,0,.732-.317Z"
                    transform="translate(-266.729 -251.432)" fill="#d12f7e" stroke="#d12f7e"
                    stroke-width="0.3" />
            </g>
        </g>
        <g id="Group_168" data-name="Group 168" transform="translate(14.724 15.798)">
            <g id="Group_167" data-name="Group 167">
                <path id="Path_127" data-name="Path 127"
                    d="M277.864,297.5a.4.4,0,0,0-.427.37,3.21,3.21,0,0,1-.147.757.4.4,0,0,0,.759.245,4.007,4.007,0,0,0,.183-.945A.4.4,0,0,0,277.864,297.5Z"
                    transform="translate(-277.272 -297.498)" fill="#d12f7e" stroke="#d12f7e"
                    stroke-width="0.3" />
            </g>
        </g>
        <g id="Group_170" data-name="Group 170" transform="translate(13.076 26.39)">
            <g id="Group_169" data-name="Group 169">
                <path id="Path_128" data-name="Path 128"
                    d="M247.515,496.971h-.87a.4.4,0,1,0,0,.8h.87a.4.4,0,1,0,0-.8Z"
                    transform="translate(-246.246 -496.971)" fill="#d12f7e" stroke="#d12f7e"
                    stroke-width="0.3" />
            </g>
        </g>
        <g id="Group_172" data-name="Group 172" transform="translate(8.007 19.154)">
            <g id="Group_171" data-name="Group 171">
                <path id="Path_129" data-name="Path 129"
                    d="M152.058,360.7h-.87a.4.4,0,1,0,0,.8h.87a.4.4,0,1,0,0-.8Z"
                    transform="translate(-150.789 -360.704)" fill="#d12f7e" stroke="#d12f7e"
                    stroke-width="0.3" />
            </g>
        </g>
        <g id="Group_174" data-name="Group 174" transform="translate(10.467 26.39)">
            <g id="Group_173" data-name="Group 173">
                <path id="Path_130" data-name="Path 130"
                    d="M198.388,496.971h-.87a.4.4,0,1,0,0,.8h.87a.4.4,0,1,0,0-.8Z"
                    transform="translate(-197.119 -496.971)" fill="#d12f7e" stroke="#d12f7e"
                    stroke-width="0.3" />
            </g>
        </g>
        <g id="Group_176" data-name="Group 176" transform="translate(7.859 26.39)">
            <g id="Group_175" data-name="Group 175">
                <path id="Path_131" data-name="Path 131"
                    d="M149.26,496.971h-.87a.4.4,0,1,0,0,.8h.87a.4.4,0,1,0,0-.8Z"
                    transform="translate(-147.991 -496.971)" fill="#d12f7e" stroke="#d12f7e"
                    stroke-width="0.3" />
            </g>
        </g>
        <g id="Group_178" data-name="Group 178" transform="translate(9.401 11.918)">
            <g id="Group_177" data-name="Group 177">
                <path id="Path_132" data-name="Path 132"
                    d="M178.3,224.438h-.87a.4.4,0,1,0,0,.8h.87a.4.4,0,1,0,0-.8Z"
                    transform="translate(-177.033 -224.438)" fill="#d12f7e" stroke="#d12f7e"
                    stroke-width="0.3" />
            </g>
        </g>
        <g id="Group_180" data-name="Group 180" transform="translate(18.303 26.39)">
            <g id="Group_179" data-name="Group 179">
                <path id="Path_133" data-name="Path 133"
                    d="M345.5,496.971h-.426a.4.4,0,0,0,0,.8h.426a.4.4,0,0,0,0-.8Z"
                    transform="translate(-344.672 -496.971)" fill="#d12f7e" stroke="#d12f7e"
                    stroke-width="0.3" />
            </g>
        </g>
    </g>
</svg>
