<svg xmlns="http://www.w3.org/2000/svg" width="20.884" height="15.331" viewBox="0 0 20.884 15.331">
    <g id="Icon_ionic-ios-menu" data-name="Icon ionic-ios-menu" transform="translate(-4.5 -10.125)">
        <path id="Path_1" data-name="Path 1"
            d="M24.514,12.375H5.37A1.026,1.026,0,0,1,4.5,11.25h0a1.026,1.026,0,0,1,.87-1.125H24.514a1.026,1.026,0,0,1,.87,1.125h0A1.026,1.026,0,0,1,24.514,12.375Z" />
        <path id="Path_2" data-name="Path 2"
            d="M24.514,19.125H5.37A1.026,1.026,0,0,1,4.5,18h0a1.026,1.026,0,0,1,.87-1.125H24.514A1.026,1.026,0,0,1,25.384,18h0A1.026,1.026,0,0,1,24.514,19.125Z"
            transform="translate(0 -0.209)" />
        <path id="Path_3" data-name="Path 3"
            d="M24.514,25.875H5.37A1.026,1.026,0,0,1,4.5,24.75h0a1.026,1.026,0,0,1,.87-1.125H24.514a1.026,1.026,0,0,1,.87,1.125h0A1.026,1.026,0,0,1,24.514,25.875Z"
            transform="translate(0 -0.419)" />
    </g>
</svg>
