<svg id="notification_2_" data-name="notification (2)" xmlns="http://www.w3.org/2000/svg"
    width="20.928" height="23.812" viewBox="0 0 20.928 23.812">
    <path id="Path_145" data-name="Path 145"
        d="M48.672,12.225V10a7.221,7.221,0,0,0-5.116-6.9V2.093a2.093,2.093,0,1,0-4.186,0V3.1A7.221,7.221,0,0,0,34.254,10v2.226a10.954,10.954,0,0,1-3.061,7.616.7.7,0,0,0,.5,1.18h6.349a3.488,3.488,0,0,0,6.836,0H51.23a.7.7,0,0,0,.5-1.18A10.954,10.954,0,0,1,48.672,12.225ZM40.765,2.093a.7.7,0,0,1,1.4,0v.731c-.23-.022-.462-.034-.7-.034s-.468.012-.7.034Zm.7,20.324a2.1,2.1,0,0,1-1.973-1.4h3.946A2.1,2.1,0,0,1,41.463,22.417ZM33.2,19.626a12.334,12.334,0,0,0,2.45-7.4V10a5.813,5.813,0,1,1,11.627,0v2.226a12.334,12.334,0,0,0,2.45,7.4Z"
        transform="translate(-30.999)" fill="#fff" />
    <path id="Path_146" data-name="Path 146"
        d="M392.353,59.111a.7.7,0,1,0,1.4,0,10.4,10.4,0,0,0-3.065-7.4.7.7,0,0,0-.987.987A9.01,9.01,0,0,1,392.353,59.111Z"
        transform="translate(-372.82 -49.111)" fill="#fff" />
    <path id="Path_147" data-name="Path 147"
        d="M31.7,59.809a.7.7,0,0,0,.7-.7A9.01,9.01,0,0,1,35.051,52.7a.7.7,0,0,0-.987-.987A10.4,10.4,0,0,0,31,59.111.7.7,0,0,0,31.7,59.809Z"
        transform="translate(-31 -49.112)" fill="#fff" />
</svg>
