<svg id="check-list" xmlns="http://www.w3.org/2000/svg" width="20.928" height="21.647"
    viewBox="0 0 20.928 21.647">
    <path id="Path_158" data-name="Path 158"
        d="M28.794,10.655H26.68V9.707a2.5,2.5,0,0,0-1.9-2.411V.634A.634.634,0,0,0,24.143,0H9.134A.634.634,0,0,0,8.5.634V18.011a.634.634,0,0,0,.634.634H18.9v.52a2.487,2.487,0,0,0,2.486,2.482h5.556a2.487,2.487,0,0,0,2.486-2.482V11.289a.634.634,0,0,0-.634-.634Zm-3.382-.947v.947H22.917V9.707a1.248,1.248,0,0,1,2.494,0ZM9.768,17.377V1.268H23.509V7.307a2.5,2.5,0,0,0-1.86,2.4v.947H19.535a.634.634,0,0,0-.634.634v6.088ZM28.16,19.165a1.217,1.217,0,0,1-1.218,1.214H21.387a1.217,1.217,0,0,1-1.218-1.214V11.923h1.48v1.67a.634.634,0,1,0,1.268,0v-1.67h2.494v1.67a.634.634,0,0,0,1.268,0v-1.67h1.48Z"
        transform="translate(-8.5)" fill="#fff" />
    <path id="Path_159" data-name="Path 159"
        d="M70.4,60.2l-.721.774-.048-.06a.634.634,0,0,0-.989.795l.507.631a.634.634,0,0,0,.471.237h.023a.634.634,0,0,0,.464-.2l1.22-1.311A.634.634,0,0,0,70.4,60.2Z"
        transform="translate(-65.962 -57.464)" fill="#fff" />
    <path id="Path_160" data-name="Path 160"
        d="M170.134,76.768H175.8a.634.634,0,1,0,0-1.268h-5.665a.634.634,0,0,0,0,1.268Z"
        transform="translate(-162.693 -72.308)" fill="#fff" />
    <path id="Path_161" data-name="Path 161"
        d="M70.4,151.2l-.721.774-.048-.06a.634.634,0,0,0-.989.795l.507.631a.634.634,0,0,0,.471.236h.023a.634.634,0,0,0,.464-.2l1.22-1.311a.634.634,0,0,0-.928-.864Z"
        transform="translate(-65.962 -144.616)" fill="#fff" />
    <path id="Path_162" data-name="Path 162"
        d="M170.134,167.768h3.551a.634.634,0,0,0,0-1.268h-3.551a.634.634,0,0,0,0,1.268Z"
        transform="translate(-162.693 -159.46)" fill="#fff" />
    <path id="Path_163" data-name="Path 163"
        d="M70.4,242.2l-.721.774-.048-.06a.634.634,0,0,0-.989.795l.507.631a.634.634,0,0,0,.471.237h.023a.634.634,0,0,0,.464-.2l1.22-1.311a.634.634,0,1,0-.928-.864Z"
        transform="translate(-65.962 -231.769)" fill="#fff" />
    <path id="Path_164" data-name="Path 164"
        d="M171.191,257.5h-1.057a.634.634,0,1,0,0,1.268h1.057a.634.634,0,1,0,0-1.268Z"
        transform="translate(-162.693 -246.613)" fill="#fff" />
</svg>
