<svg xmlns="http://www.w3.org/2000/svg" width="20.903" height="20.921" viewBox="0 0 20.903 20.921">
    <path id="Path_5" data-name="Path 5"
        d="M17.428,104.277a.993.993,0,0,0-1.086.217l-5.975,5.975a1,1,0,0,0,1.409,1.409l4.276-4.276v16.523a1,1,0,0,0,1.993,0V105.2A1.007,1.007,0,0,0,17.428,104.277ZM30.685,118.44a1,1,0,0,0-1.409,0L26,121.719V105.2a1,1,0,0,0-1.993,0v18.925a1,1,0,0,0,.616.92.969.969,0,0,0,.381.077.992.992,0,0,0,.7-.291l4.982-4.982A.989.989,0,0,0,30.685,118.44Z"
        transform="translate(-10.075 -104.2)" />
</svg>
