<svg id="iconfinder_Artboard_12_6363071" xmlns="http://www.w3.org/2000/svg" width="20.928"
    height="18.312" viewBox="0 0 20.928 18.312">
    <path id="Path_180" data-name="Path 180"
        d="M9.653,16.615a.655.655,0,0,1-.209-1.275l3.924-1.308a.656.656,0,0,1,.419,1.243L9.862,16.582a.818.818,0,0,1-.209.033Z"
        transform="translate(-3.113 -6.151)" fill="#fff" />
    <path id="Path_181" data-name="Path 181"
        d="M19.577,16.615a.818.818,0,0,1-.209-.033l-3.924-1.308a.656.656,0,0,1,.419-1.243l3.924,1.308a.65.65,0,0,1-.209,1.275Z"
        transform="translate(-5.189 -6.151)" fill="#fff" />
    <path id="Path_182" data-name="Path 182"
        d="M13.578,25.156c-2.564,0-4.578-3.734-4.578-8.5a.654.654,0,0,1,1.308,0c0,4.238,1.72,7.194,3.27,7.194a.654.654,0,0,1,0,1.308Z"
        transform="translate(-3.114 -6.844)" fill="#fff" />
    <path id="Path_183" data-name="Path 183"
        d="M15.654,25.156a.654.654,0,0,1,0-1.308c1.55,0,3.27-2.956,3.27-7.194a.654.654,0,0,1,1.308,0C20.232,21.422,18.218,25.156,15.654,25.156Z"
        transform="translate(-5.19 -6.844)" fill="#fff" />
    <path id="Path_184" data-name="Path 184"
        d="M4.578,20.156a4.578,4.578,0,0,1,0-9.156.654.654,0,0,1,0,1.308,3.27,3.27,0,0,0,0,6.54.654.654,0,0,1,0,1.308Z"
        transform="translate(0 -5.114)" fill="#fff" />
    <path id="Path_185" data-name="Path 185"
        d="M24.654,20.156a.654.654,0,0,1,0-1.308,3.27,3.27,0,0,0,0-6.54.654.654,0,0,1,0-1.308,4.578,4.578,0,0,1,0,9.156Z"
        transform="translate(-8.304 -5.114)" fill="#fff" />
    <path id="Path_186" data-name="Path 186"
        d="M18.426,9.194a.654.654,0,0,1-.654-.654,5.232,5.232,0,1,0-10.464,0A.654.654,0,1,1,6,8.54a6.54,6.54,0,1,1,13.08,0A.654.654,0,0,1,18.426,9.194Z"
        transform="translate(-2.076 -2)" fill="#fff" />
    <path id="Path_187" data-name="Path 187"
        d="M7.308,24.308H6.654a.654.654,0,0,1,0-1.308h.654a.654.654,0,0,1,0,1.308Z"
        transform="translate(-2.076 -9.266)" fill="#fff" />
    <path id="Path_188" data-name="Path 188"
        d="M24.308,24.308h-.654a.654.654,0,1,1,0-1.308h.654a.654.654,0,1,1,0,1.308Z"
        transform="translate(-7.958 -9.266)" fill="#fff" />
</svg>
