<svg xmlns="http://www.w3.org/2000/svg" width="20.286" height="27.188" viewBox="0 0 20.286 27.188">
    <g id="quality_1_" data-name="quality (1)" transform="translate(-0.499 -0.001)">
        <path id="Path_78" data-name="Path 78"
            d="M101.039,90.945a.531.531,0,1,0-.531-.531A.531.531,0,0,0,101.039,90.945Zm0,0"
            transform="translate(-94.698 -85.11)" fill="#d12f7e" />
        <path id="Path_79" data-name="Path 79"
            d="M20.464,9.635a1.632,1.632,0,0,0-.359-2.051l-1.8-1.527a.57.57,0,0,1-.19-.335l-.407-2.307a1.612,1.612,0,0,0-1.586-1.342H13.775a.539.539,0,0,1-.346-.126l-1.8-1.56,0,0a1.6,1.6,0,0,0-2.075,0l0,0L7.752,1.943a.541.541,0,0,1-.35.13H5.055A1.612,1.612,0,0,0,3.469,3.414l-.408,2.31a.565.565,0,0,1-.19.334l-1.8,1.528A1.632,1.632,0,0,0,.714,9.635l1.174,2.058a.573.573,0,0,1,.067.382l-.408,2.34A1.624,1.624,0,0,0,2.58,16.221l2.206.813a.534.534,0,0,1,.123.065L.82,24.271a.531.531,0,0,0,.6.776l2.389-.64.64,2.388a.531.531,0,0,0,.974.126l4.221-7.4.761-.28a.539.539,0,0,1,.371,0l.819.3,4.529,7.394a.531.531,0,0,0,.966-.14l.64-2.388,2.388.64a.532.532,0,0,0,.59-.79l-4.4-7.182a.516.516,0,0,1,.085-.04l2.205-.813a1.622,1.622,0,0,0,1.034-1.806l-.408-2.34a.573.573,0,0,1,.067-.382ZM5.139,25.273,4.7,23.619a.531.531,0,0,0-.65-.375l-1.672.448,3.179-5.575.7,1.22a1.6,1.6,0,0,0,1.849.749Zm13.966-1.6-1.616-.433a.531.531,0,0,0-.65.375l-.457,1.707-3.193-5.212a1.6,1.6,0,0,0,1.741-.777l.732-1.283Zm-.738-12.509a1.638,1.638,0,0,0-.19,1.09l.408,2.34a.561.561,0,0,1-.354.627l-2.205.813a1.613,1.613,0,0,0-.8.649.513.513,0,0,0-.056.09l-1.161,2.035a.543.543,0,0,1-.659.245l-2.207-.813a1.6,1.6,0,0,0-1.1,0l-2.206.813a.543.543,0,0,1-.66-.245L6.078,16.9a.532.532,0,0,0-.158-.265,1.613,1.613,0,0,0-.767-.594l-2.206-.813a.562.562,0,0,1-.354-.627L3,12.257a1.636,1.636,0,0,0-.19-1.09L1.637,9.109a.569.569,0,0,1,.123-.715l1.8-1.527a1.629,1.629,0,0,0,.548-.96L4.515,3.6a.553.553,0,0,1,.54-.463H7.4a1.607,1.607,0,0,0,1.041-.386l1.8-1.557a.541.541,0,0,1,.7,0l1.8,1.561a1.6,1.6,0,0,0,1.038.382h2.348a.553.553,0,0,1,.54.464l.407,2.308a1.633,1.633,0,0,0,.549.96l1.8,1.527a.569.569,0,0,1,.124.716Zm0,0"
            transform="translate(0 0)" fill="#d12f7e" />
        <path id="Path_80" data-name="Path 80"
            d="M67.411,59.746a6.864,6.864,0,0,0-2.641.524.531.531,0,1,0,.407.981A5.839,5.839,0,1,1,62.312,63.8a.531.531,0,1,0-.927-.519,6.9,6.9,0,1,0,6.026-3.532Zm0,0"
            transform="translate(-56.822 -56.573)" fill="#d12f7e" />
        <path id="Path_81" data-name="Path 81"
            d="M124.919,124.274l-.311,1.81a.531.531,0,0,0,.77.56l1.626-.855,1.626.855a.531.531,0,0,0,.77-.56l-.311-1.81,1.315-1.282a.531.531,0,0,0-.294-.906l-1.817-.264-.812-1.647a.531.531,0,0,0-.953,0l-.812,1.647-1.817.264a.531.531,0,0,0-.294.906Zm1.226-1.441a.531.531,0,0,0,.4-.29l.46-.932.46.932a.531.531,0,0,0,.4.29l1.029.15-.745.726a.531.531,0,0,0-.153.47l.176,1.025-.92-.484a.531.531,0,0,0-.494,0l-.92.484.176-1.025a.531.531,0,0,0-.153-.47l-.745-.726Zm0,0"
            transform="translate(-116.416 -113.513)" fill="#d12f7e" />
    </g>
</svg>
