<svg id="Like_2_" xmlns="http://www.w3.org/2000/svg" width="20.928" height="20.928"
    viewBox="0 0 20.928 20.928">
    <g id="Group_222" data-name="Group 222" transform="translate(0 7.439)">
        <g id="Group_221" data-name="Group 221">
            <path id="Path_178" data-name="Path 178"
                d="M8.62,195.488H6.531a6.144,6.144,0,0,1-3.676-1.226H0V188.13H2.74c.28-.409.535-.756.764-1.068a5.3,5.3,0,0,0,1.4-3.967V182h.613a3.069,3.069,0,0,1,3.066,3.066V186.9h1.671A1.838,1.838,0,0,1,12,189.325l-1.635,4.905a1.837,1.837,0,0,1-1.745,1.258Zm-7.394-2.453H3.283l.169.136a4.912,4.912,0,0,0,3.08,1.09H8.62a.612.612,0,0,0,.582-.419l1.635-4.905a.613.613,0,0,0-.582-.807h-2.9v-3.066a1.843,1.843,0,0,0-1.228-1.735,6.377,6.377,0,0,1-1.637,4.458c-.271.369-.578.788-.917,1.3l-.182.273H1.226Z"
                transform="translate(0 -181.999)" fill="#fff" />
        </g>
    </g>
    <g id="Group_224" data-name="Group 224" transform="translate(8.832 0)">
        <g id="Group_223" data-name="Group 223">
            <path id="Path_179" data-name="Path 179"
                d="M223.272,13.489h-.613a3.069,3.069,0,0,1-3.066-3.066V8.584h-1.671a1.838,1.838,0,0,1-1.745-2.421l1.635-4.905A1.837,1.837,0,0,1,219.557,0h2.089a6.144,6.144,0,0,1,3.676,1.226h2.855V7.358h-2.74c-.28.409-.535.756-.764,1.068a5.3,5.3,0,0,0-1.4,3.967v1.1ZM219.557,1.226a.612.612,0,0,0-.582.419L217.34,6.551a.613.613,0,0,0,.582.807h2.9v3.066a1.843,1.843,0,0,0,1.228,1.735A6.377,6.377,0,0,1,223.684,7.7c.271-.369.578-.788.917-1.3l.182-.273h2.168V2.453h-2.056l-.169-.136a4.912,4.912,0,0,0-3.08-1.09Z"
                transform="translate(-216.081 0)" fill="#fff" />
        </g>
    </g>
</svg>
