<svg xmlns="http://www.w3.org/2000/svg" width="20.521" height="20.521" viewBox="0 0 22.521 22.521">
    <g id="share_3_" data-name="share (3)" transform="translate(0.15 0.15)">
        <path id="Path_205" data-name="Path 205"
            d="M165.569,0H159.8a.579.579,0,1,0,0,1.157h4.381L152.925,12.521a.579.579,0,0,0,.822.815L164.99,1.985V6.348a.579.579,0,1,0,1.157,0V.579A.579.579,0,0,0,165.569,0Zm0,0"
            transform="translate(-143.927)" fill="#d12f7e" stroke="#d12f7e" stroke-width="0.3" />
        <path id="Path_206" data-name="Path 206"
            d="M18.757,59.39a.579.579,0,0,0-.579.579v6.337a1.738,1.738,0,0,1-1.736,1.736H2.893a1.738,1.738,0,0,1-1.736-1.736V52.756A1.738,1.738,0,0,1,2.893,51.02H9.23a.579.579,0,0,0,0-1.157H2.893A2.9,2.9,0,0,0,0,52.756V66.305A2.9,2.9,0,0,0,2.893,69.2H16.442a2.9,2.9,0,0,0,2.893-2.893V59.968A.579.579,0,0,0,18.757,59.39Zm0,0"
            transform="translate(0 -46.978)" fill="#d12f7e" stroke="#d12f7e" stroke-width="0.3" />
    </g>
</svg>
